# xmcd
#
# Track frame offsets:
#	150
#	21454
#	36829
#	52125
#	69823
#	90880
#	110165
#	129924
#	145396
#	165122
#
# Disc length: 2578 seconds
#
# Revision: 0
# Processed by: cddbd v1.5.2PL0 Copyright (c) Steve Scherf et al.
# Submitted via: dBpowerAMP V4.0
#
DISCID=7f0a100a
DTITLE=Набат - Nabat Acousitc
DYEAR=2010
DGENRE=Acoustic
TTITLE0=01 - Дух (Acoustic)
TTITLE1=02 - Шанс (Acoustic)
TTITLE2=03 - Ради Христа (Original)
TTITLE3=04 - Молитва (Original)
TTITLE4=05 - Мир тонет (Remake)
TTITLE5=06 - Вечерние тени (Acoustic)
TTITLE6=07 - Тихая ночь (Original)
TTITLE7=08 - Что прошло, того не будет (Original)
TTITLE8=09 - Две дороги (Remake)
TTITLE9=10 - Мечта (Acoustic) 
EXTD=Nabat Acoustic - 2010
EXTT0=
EXTT1=
EXTT2=
EXTT3=
EXTT4=
EXTT5=
EXTT6=
EXTT7=
EXTT8=
EXTT9=
PLAYORDER=
